<!DOCTYPE svg PUBLIC "-//W3C//DTD SVG 1.1//EN" "http://www.w3.org/Graphics/SVG/1.1/DTD/svg11.dtd">
<!-- Uploaded to: SVG Repo, www.svgrepo.com, Transformed by: SVG Repo Mixer Tools -->
<svg fill="#000000" height="800px" width="800px" version="1.1" id="Layer_1" xmlns="http://www.w3.org/2000/svg" xmlns:xlink="http://www.w3.org/1999/xlink" viewBox="0 0 463.1 463.1" xml:space="preserve">
<g id="SVGRepo_bgCarrier" stroke-width="0"/>
<g id="SVGRepo_tracerCarrier" stroke-linecap="round" stroke-linejoin="round"/>
<g id="SVGRepo_iconCarrier"> <g transform="translate(0 -540.36)"> <g> <g> <path d="M322.086,796.56c-2.5-1.7-4.1-3.4-4.1-4.7v-24.7c0.3-1,2.1-3.6,4.4-5c0.1-0.1,0.2-0.1,0.3-0.2c7.6-5.4,12.3-14,12.3-22.3 c0-6.5-1.6-11.9-4.9-16.3c3.1-4.5,4.9-10.1,4.9-16c0.1-6.6-1.5-12-4.8-16.5c3.2-4.7,4.9-10.6,4.9-17.3c0-7.3-2.7-13.6-7.9-18.5 v-3.9c0-17.9-12.6-33.4-33.1-41.5c-1.6-14.1-9.4-26.1-20.3-32.3c0.2-1.7,0.3-3.8-0.5-6.1c-0.6-17.4-11.8-30.9-25.9-30.9h-31.5 c-14.5,0-25.9,14.2-25.9,32.4v4.4c-11,6.1-19.3,18.1-21.7,32.5c-19.7,8.2-32.1,24.1-32.1,41.5v3.5c-5,4.3-7.9,11.1-7.9,18.9 c0,6.7,1.7,12.6,4.9,17.3c-3.3,4.4-4.9,9.9-4.9,16.3c0,5.9,1.7,11.4,4.8,16c-4,5.1-5.8,11.3-4.8,17.1c0.2,9.3,4.9,17.3,12.8,21.9 c2.3,1.5,4,4,4.3,5v22.2c0,2.1-3.9,5.6-6.3,7.8c-0.5,0.4-0.9,0.8-1.4,1.3c-5.7,4-9.4,11.1-9.4,18.3v163 c0,13.3,10.2,23.7,23.3,23.7h160.2c13,0,23.3-10.4,23.3-23.7v-163C335.086,808.26,330.086,800.56,322.086,796.56z M215.986,555.46h31.5c6,0,10.9,7.8,10.9,17.4h-1.7h-49.9h-1.7C205.086,563.26,209.986,555.46,215.986,555.46z M320.086,979.76 c0,4.2-2.9,8.7-8.3,8.7h-160.2c-5.4,0-8.3-4.5-8.3-8.7v-163c0-2.4,1.3-5,3.1-6.1c0.4-0.3,0.8-0.6,1.2-0.9c0.5-0.5,1.1-1,1.6-1.5 c4.5-4.1,11.2-10.2,11.2-18.9v-22.4c0-7.1-5.9-14.1-11.4-17.5c-0.1-0.1-0.2-0.1-0.3-0.2c-3.6-2-5.4-5.3-5.4-9.7 c0-0.5-0.1-1-0.2-1.5c-0.5-2.6,1.5-6.1,4.9-8.5c2-1.4,3.2-3.7,3.2-6.1c0-2.4-1.2-4.7-3.2-6.1c-3-2.1-4.7-5.9-4.7-10.1 c0-5.6,1.9-8,4.7-10.1c2-1.4,3.2-3.7,3.2-6.1c0-2.4-1.2-4.7-3.2-6.1c-3.9-2.8-4.7-7.7-4.7-11.3c0-3.8,1.5-7.2,3.6-8.2 c2.6-1.2,4.3-3.9,4.3-6.8v-7.5c0-12.2,10.4-23.6,26.4-29c2.9-1,4.9-3.6,5.1-6.6c1.1-15.6,11.6-27.9,24-27.9h50 c12.5,0.1,22.6,12.3,22.6,27.3c0,3.3,2.1,6.2,5.2,7.2c17,5.4,27.6,16.5,27.6,28.9v7.5c0,2.4,1.2,4.7,3.2,6.1 c3.3,2.3,4.7,5,4.7,8.8c0,3.6-0.8,8.5-4.7,11.3c-2,1.4-3.2,3.7-3.2,6.1c0,2.4,1.3,4.9,3.3,6.3h0c2.8,2,4.7,4.5,4.7,10.1 c0,4.2-1.8,8-4.7,10.1c-2,1.4-3.2,3.7-3.2,6.1c0,2.4,1.2,4.7,3.2,6.1c2.8,2,4.7,4.5,4.7,10.1c0,3.4-2.4,7.4-5.9,10 c-5.4,3.5-11.2,10.4-11.2,17.4v24.9c0,4.7,2,11.6,11.4,17.5c0.3,0.2,0.5,0.3,0.8,0.4c1.2,0.5,4.9,2.7,4.9,6.9V979.76z"/> <path d="M293.486,830.46c-4.1,0-7.5,3.4-7.5,7.5v74.6c0,4.1,3.4,7.5,7.5,7.5v0c4.1,0,7.5-3.3,7.5-7.4v-74.7 C300.986,833.86,297.586,830.46,293.486,830.46z"/> <path d="M293.486,938.66c-4.1,0-7.5,3.4-7.5,7.5v7.5c0,4.1,3.4,7.5,7.5,7.5c4.1,0,7.5-3.4,7.5-7.5v-7.5 C300.986,942.06,297.586,938.66,293.486,938.66z"/> </g> </g> </g> </g>
</svg>